<svg width="398" height="106" viewBox="0 0 398 106" fill="none" xmlns="http://www.w3.org/2000/svg">
<path d="M93.1904 85.134L68.8316 53.603L93.1904 20.8548L93.1904 0.000244141L0.000191718 0.000240067L0.000191092 14.3281C20.6536 26.8588 59.5682 54.8037 69.8868 92.5593C69.8868 92.5593 28.5316 58.2264 0.000188342 77.2349L0.000187086 105.98L93.1904 105.98L93.1904 85.1258L93.1904 85.134Z" fill="white"/>
<path d="M120.258 105.98L147.983 78.2783L176.779 105.98L195.117 105.98L195.117 0.000118494L182.518 0.000117241C171.5 23.4881 146.927 67.7435 113.728 79.4783C113.728 79.4783 143.918 32.4473 127.203 0.000111742L101.927 0.000109229L101.927 105.98L120.265 105.98L120.258 105.98Z" fill="white"/>
<path d="M202.883 20.8465L227.242 52.3775L202.883 85.1257L202.883 105.98L296.073 105.98L296.073 91.6524C275.42 79.1217 236.505 51.1767 226.186 13.4212C226.186 13.4212 267.542 47.7541 296.073 28.7456L296.073 0.000117527L202.883 0.00012216L202.883 20.8547L202.883 20.8465Z" fill="white"/>
<path d="M379.669 0.000244141L351.943 27.7022L323.147 0.000244141L304.81 0.000244141V105.98H317.408C328.427 82.4923 352.999 38.237 386.198 26.5021C386.198 26.5021 356.009 73.5332 372.723 105.98H398V0.000244141L379.662 0.000244141L379.669 0.000244141Z" fill="white"/>
</svg>
