<svg width="1616" height="220" viewBox="0 0 1616 220" fill="none" xmlns="http://www.w3.org/2000/svg">
<g clip-path="url(#clip0_252_174)">
<path d="M93.1902 85.1338L68.8314 53.6028L93.1902 20.8546V4.074e-06L4.63201e-06 0L4.006e-06 14.3279C20.6534 26.8586 59.568 54.8035 69.8866 92.5591C69.8866 92.5591 28.5314 58.2262 1.256e-06 77.2347L0 105.98H93.1902V85.1256V85.1338Z" fill="#F9F9F9" fill-opacity="0.03"/>
<path d="M120.257 105.98L147.982 78.2782L176.778 105.98H195.116V9.265e-06L182.517 8.012e-06C171.499 23.488 146.926 67.7434 113.727 79.4782C113.727 79.4782 143.917 32.4472 127.202 2.51301e-06L101.926 0V105.98H120.264H120.257Z" fill="#F9F9F9" fill-opacity="0.03"/>
<path d="M202.883 20.8464L227.242 52.3774L202.883 85.1256V105.98H296.073V91.6523C275.42 79.1216 236.505 51.1766 226.186 13.4211C226.186 13.4211 267.542 47.754 296.073 28.7455V0L202.883 4.633e-06V20.8546V20.8464Z" fill="#F9F9F9" fill-opacity="0.03"/>
<path d="M379.668 0L351.942 27.702L323.146 0H304.809V105.98H317.407C328.426 82.4921 352.998 38.2368 386.197 26.5019C386.197 26.5019 356.008 73.533 372.722 105.98H397.999V0H379.661H379.668Z" fill="#F9F9F9" fill-opacity="0.03"/>
</g>
<g clip-path="url(#clip1_252_174)">
<path d="M499.19 85.1338L474.831 53.6028L499.19 20.8546V4.074e-06L406 0L406 14.3279C426.653 26.8586 465.568 54.8035 475.887 92.5591C475.887 92.5591 434.531 58.2262 406 77.2347L406 105.98H499.19V85.1256V85.1338Z" fill="#F9F9F9" fill-opacity="0.03"/>
<path d="M526.257 105.98L553.982 78.2782L582.778 105.98H601.116V9.265e-06L588.517 8.012e-06C577.499 23.488 552.926 67.7434 519.727 79.4782C519.727 79.4782 549.917 32.4472 533.202 2.51301e-06L507.926 0V105.98H526.264H526.257Z" fill="#F9F9F9" fill-opacity="0.03"/>
<path d="M608.883 20.8464L633.242 52.3774L608.883 85.1256V105.98H702.073V91.6523C681.42 79.1216 642.505 51.1766 632.186 13.4211C632.186 13.4211 673.542 47.754 702.073 28.7455V0L608.883 4.633e-06V20.8546V20.8464Z" fill="#F9F9F9" fill-opacity="0.03"/>
<path d="M785.668 0L757.942 27.702L729.146 0H710.809V105.98H723.407C734.426 82.4921 758.998 38.2368 792.197 26.5019C792.197 26.5019 762.008 73.533 778.722 105.98H803.999V0H785.661H785.668Z" fill="#F9F9F9" fill-opacity="0.03"/>
</g>
<g clip-path="url(#clip2_252_174)">
<path d="M905.19 199.134L880.831 167.603L905.19 134.855V114L812 114L812 128.328C832.653 140.859 871.568 168.803 881.887 206.559C881.887 206.559 840.531 172.226 812 191.235L812 219.98H905.19V199.126V199.134Z" fill="#F9F9F9" fill-opacity="0.03"/>
<path d="M932.257 219.98L959.982 192.278L988.778 219.98H1007.12V114L994.517 114C983.499 137.488 958.926 181.743 925.727 193.478C925.727 193.478 955.917 146.447 939.202 114L913.926 114V219.98H932.264H932.257Z" fill="#F9F9F9" fill-opacity="0.03"/>
<path d="M1014.88 134.846L1039.24 166.377L1014.88 199.126V219.98H1108.07V205.652C1087.42 193.122 1048.5 165.177 1038.19 127.421C1038.19 127.421 1079.54 161.754 1108.07 142.745V114L1014.88 114V134.855V134.846Z" fill="#F9F9F9" fill-opacity="0.03"/>
<path d="M1191.67 114L1163.94 141.702L1135.15 114H1116.81V219.98H1129.41C1140.43 196.492 1165 152.237 1198.2 140.502C1198.2 140.502 1168.01 187.533 1184.72 219.98H1210V114H1191.66H1191.67Z" fill="#F9F9F9" fill-opacity="0.03"/>
</g>
<g clip-path="url(#clip3_252_174)">
<path d="M905.19 85.1338L880.831 53.6028L905.19 20.8546V4.074e-06L812 0L812 14.3279C832.653 26.8586 871.568 54.8035 881.887 92.5591C881.887 92.5591 840.531 58.2262 812 77.2347L812 105.98H905.19V85.1256V85.1338Z" fill="#F9F9F9" fill-opacity="0.03"/>
<path d="M932.257 105.98L959.982 78.2782L988.778 105.98H1007.12V9.265e-06L994.517 8.012e-06C983.499 23.488 958.926 67.7434 925.727 79.4782C925.727 79.4782 955.917 32.4472 939.202 2.51301e-06L913.926 0V105.98H932.264H932.257Z" fill="#F9F9F9" fill-opacity="0.03"/>
<path d="M1014.88 20.8464L1039.24 52.3774L1014.88 85.1256V105.98H1108.07V91.6523C1087.42 79.1216 1048.5 51.1766 1038.19 13.4211C1038.19 13.4211 1079.54 47.754 1108.07 28.7455V0L1014.88 4.633e-06V20.8546V20.8464Z" fill="#F9F9F9" fill-opacity="0.03"/>
<path d="M1191.67 0L1163.94 27.702L1135.15 0H1116.81V105.98H1129.41C1140.43 82.4921 1165 38.2368 1198.2 26.5019C1198.2 26.5019 1168.01 73.533 1184.72 105.98H1210V0H1191.66H1191.67Z" fill="#F9F9F9" fill-opacity="0.03"/>
</g>
<g clip-path="url(#clip4_252_174)">
<path d="M1311.19 85.1338L1286.83 53.6028L1311.19 20.8546V4.074e-06L1218 0L1218 14.3279C1238.65 26.8586 1277.57 54.8035 1287.89 92.5591C1287.89 92.5591 1246.53 58.2262 1218 77.2347L1218 105.98H1311.19V85.1256V85.1338Z" fill="#F9F9F9" fill-opacity="0.03"/>
<path d="M1338.26 105.98L1365.98 78.2782L1394.78 105.98H1413.12V9.265e-06L1400.52 8.012e-06C1389.5 23.488 1364.93 67.7434 1331.73 79.4782C1331.73 79.4782 1361.92 32.4472 1345.2 2.51301e-06L1319.93 0V105.98H1338.26H1338.26Z" fill="#F9F9F9" fill-opacity="0.03"/>
<path d="M1420.88 20.8464L1445.24 52.3774L1420.88 85.1256V105.98H1514.07V91.6523C1493.42 79.1216 1454.5 51.1766 1444.19 13.4211C1444.19 13.4211 1485.54 47.754 1514.07 28.7455V0L1420.88 4.633e-06V20.8546V20.8464Z" fill="#F9F9F9" fill-opacity="0.03"/>
<path d="M1597.67 0L1569.94 27.702L1541.15 0H1522.81V105.98H1535.41C1546.43 82.4921 1571 38.2368 1604.2 26.5019C1604.2 26.5019 1574.01 73.533 1590.72 105.98H1616V0H1597.66H1597.67Z" fill="#F9F9F9" fill-opacity="0.03"/>
</g>
<g clip-path="url(#clip5_252_174)">
<path d="M1311.19 199.134L1286.83 167.603L1311.19 134.855V114L1218 114L1218 128.328C1238.65 140.859 1277.57 168.803 1287.89 206.559C1287.89 206.559 1246.53 172.226 1218 191.235L1218 219.98H1311.19V199.126V199.134Z" fill="#F9F9F9" fill-opacity="0.03"/>
<path d="M1338.26 219.98L1365.98 192.278L1394.78 219.98H1413.12V114L1400.52 114C1389.5 137.488 1364.93 181.743 1331.73 193.478C1331.73 193.478 1361.92 146.447 1345.2 114L1319.93 114V219.98H1338.26H1338.26Z" fill="#F9F9F9" fill-opacity="0.03"/>
<path d="M1420.88 134.846L1445.24 166.377L1420.88 199.126V219.98H1514.07V205.652C1493.42 193.122 1454.5 165.177 1444.19 127.421C1444.19 127.421 1485.54 161.754 1514.07 142.745V114L1420.88 114V134.855V134.846Z" fill="#F9F9F9" fill-opacity="0.03"/>
<path d="M1597.67 114L1569.94 141.702L1541.15 114H1522.81V219.98H1535.41C1546.43 196.492 1571 152.237 1604.2 140.502C1604.2 140.502 1574.01 187.533 1590.72 219.98H1616V114H1597.66H1597.67Z" fill="#F9F9F9" fill-opacity="0.03"/>
</g>
<g clip-path="url(#clip6_252_174)">
<path d="M93.1902 198.134L68.8314 166.603L93.1902 133.855V113L4.63201e-06 113L4.006e-06 127.328C20.6534 139.859 59.568 167.803 69.8866 205.559C69.8866 205.559 28.5314 171.226 1.256e-06 190.235L0 218.98H93.1902V198.126V198.134Z" fill="#F9F9F9" fill-opacity="0.03"/>
<path d="M120.257 218.98L147.982 191.278L176.778 218.98H195.116V113L182.517 113C171.499 136.488 146.926 180.743 113.727 192.478C113.727 192.478 143.917 145.447 127.202 113L101.926 113V218.98H120.264H120.257Z" fill="#F9F9F9" fill-opacity="0.03"/>
<path d="M202.883 133.846L227.242 165.377L202.883 198.126V218.98H296.073V204.652C275.42 192.122 236.505 164.177 226.186 126.421C226.186 126.421 267.542 160.754 296.073 141.745V113L202.883 113V133.855V133.846Z" fill="#F9F9F9" fill-opacity="0.03"/>
<path d="M379.668 113L351.942 140.702L323.146 113H304.809V218.98H317.407C328.426 195.492 352.998 151.237 386.197 139.502C386.197 139.502 356.008 186.533 372.722 218.98H397.999V113H379.661H379.668Z" fill="#F9F9F9" fill-opacity="0.03"/>
</g>
<g clip-path="url(#clip7_252_174)">
<path d="M499.19 198.134L474.831 166.603L499.19 133.855V113L406 113L406 127.328C426.653 139.859 465.568 167.803 475.887 205.559C475.887 205.559 434.531 171.226 406 190.235L406 218.98H499.19V198.126V198.134Z" fill="#F9F9F9" fill-opacity="0.03"/>
<path d="M526.257 218.98L553.982 191.278L582.778 218.98H601.116V113L588.517 113C577.499 136.488 552.926 180.743 519.727 192.478C519.727 192.478 549.917 145.447 533.202 113L507.926 113V218.98H526.264H526.257Z" fill="#F9F9F9" fill-opacity="0.03"/>
<path d="M608.883 133.846L633.242 165.377L608.883 198.126V218.98H702.073V204.652C681.42 192.122 642.505 164.177 632.186 126.421C632.186 126.421 673.542 160.754 702.073 141.745V113L608.883 113V133.855V133.846Z" fill="#F9F9F9" fill-opacity="0.03"/>
<path d="M785.668 113L757.942 140.702L729.146 113H710.809V218.98H723.407C734.426 195.492 758.998 151.237 792.197 139.502C792.197 139.502 762.008 186.533 778.722 218.98H803.999V113H785.661H785.668Z" fill="#F9F9F9" fill-opacity="0.03"/>
</g>
<defs>
<clipPath id="clip0_252_174">
<rect width="398" height="106" fill="white"/>
</clipPath>
<clipPath id="clip1_252_174">
<rect width="398" height="106" fill="white" transform="translate(406)"/>
</clipPath>
<clipPath id="clip2_252_174">
<rect width="398" height="106" fill="white" transform="translate(812 114)"/>
</clipPath>
<clipPath id="clip3_252_174">
<rect width="398" height="106" fill="white" transform="translate(812)"/>
</clipPath>
<clipPath id="clip4_252_174">
<rect width="398" height="106" fill="white" transform="translate(1218)"/>
</clipPath>
<clipPath id="clip5_252_174">
<rect width="398" height="106" fill="white" transform="translate(1218 114)"/>
</clipPath>
<clipPath id="clip6_252_174">
<rect width="398" height="106" fill="white" transform="translate(0 113)"/>
</clipPath>
<clipPath id="clip7_252_174">
<rect width="398" height="106" fill="white" transform="translate(406 113)"/>
</clipPath>
</defs>
</svg>
